Coordinates
version=1
nRows=6
nColumns=36
inDegrees=yes

Units are S.I. units (second, meters, Newtons, ...)
If the header above contains a line with 'inDegrees', this indicates whether rotational values are in degrees (yes) or radians (no).

endheader
time	pelvis_tilt	pelvis_list	pelvis_rotation	pelvis_tx	pelvis_ty	pelvis_tz	hip_flexion_r	hip_adduction_r	hip_rotation_r	knee_angle_r	knee_angle_r_beta	ankle_angle_r	subtalar_angle_r	mtp_angle_r	hip_flexion_l	hip_adduction_l	hip_rotation_l	knee_angle_l	knee_angle_l_beta	ankle_angle_l	subtalar_angle_l	mtp_angle_l	lumbar_extension	lumbar_bending	lumbar_rotation	arm_flex_r	arm_add_r	arm_rot_r	elbow_flex_r	pro_sup_r	arm_flex_l	arm_add_l	arm_rot_l	elbow_flex_l	pro_sup_l
      1.22083330	    -30.50568628	     -0.79700124	      6.40340471	     -0.95903907	      1.12053172	     -0.08664076	     60.75235694	     -0.57800103	      7.48139413	     53.89302093	      0.94061066	     17.39324494	    -28.45386928	     -7.49999987	     62.32535423	      6.63782284	      9.52132315	     55.03012616	      0.96045689	     14.39530677	    -22.25332314	     -7.49999987	    -24.84102687	      5.81216730	     -3.69630266	     25.34082285	    -12.63387725	     10.26979638	     32.49377839	     83.84826504	     37.22308414	    -12.97538336	     13.03326331	     23.17972743	     64.82367961
      1.22500000	    -30.98191574	     -0.83662705	      6.02429724	     -0.95835333	      1.11277175	     -0.08185795	     62.09563289	     -0.07891811	      7.62677785	     55.20767485	      0.96355570	     18.61566441	    -27.48975090	     -7.49999987	     63.48596586	      6.46841609	      9.73082237	     56.39057201	      0.98420115	     14.95515355	    -22.67261566	     -7.49999987	    -24.02566620	      5.53255522	     -3.66816441	     23.62386596	    -12.44323322	      9.64579823	     32.03093124	     83.46676112	     35.23059335	    -13.71137726	     11.62779106	     22.91439166	     64.86980137
      1.22916670	    -32.13418696	     -0.88838508	      5.41255064	     -0.96050346	      1.10001839	     -0.08358154	     64.48467531	      0.40193509	      7.64433904	     57.19862367	      0.99830431	     20.24543177	    -26.53939399	     -7.49999987	     65.87906363	      6.27342847	      9.67329951	     58.52455945	      1.02144626	     16.04225646	    -22.91203753	     -7.49999987	    -22.00821772	      5.24283930	     -3.53408850	     21.50486987	    -12.44265001	      9.13938515	     31.40956183	     83.11872027	     32.69992351	    -14.33628357	     10.07245809	     22.49634678	     64.95211411
      1.23333330	    -33.52316942	     -1.03318708	      5.10149543	     -0.96108174	      1.08690488	     -0.07918812	     67.20185032	      0.88123720	      7.61153632	     59.51379825	      1.03871173	     22.20969781	    -25.69406084	     -7.49999987	     68.61511260	      6.06361837	      9.76141940	     60.97858161	      1.06427702	     17.40511546	    -23.00837370	     -7.49999987	    -19.12232744	      4.84814961	     -3.60398150	     18.85838640	    -12.35227250	      8.60965418	     31.00473435	     83.20009703	     29.76318003	    -15.12056455	      8.14528739	     22.14428037	     65.26797943
      1.23750000	    -35.07065588	     -1.11521791	      4.79142737	     -0.96024319	      1.07880914	     -0.07757842	     69.79213431	      1.23040138	      7.30103490	     61.52893769	      1.07388255	     23.43147945	    -25.69477760	     -7.49999987	     71.22539005	      5.80859359	      9.64746231	     63.00506999	      1.09964592	     18.74081767	    -22.34345859	     -7.49999987	    -15.89330091	      4.45041697	     -3.54047189	     15.90615071	    -12.28274523	      8.30372041	     30.46530997	     82.93033174	     26.62862535	    -15.85055554	      6.72861241	     21.55548408	     65.50973517
      1.24166670	    -36.58389727	     -1.09346670	      4.53158301	     -0.95941738	      1.07161081	     -0.07836233	     72.25660349	      1.49783425	      7.42089952	     63.12602570	      1.10175699	     24.47060620	    -24.84170201	     -7.49999987	     73.59205201	      5.63390977	      9.39444089	     64.76312260	      1.13032972	     19.87061725	    -21.75280114	     -7.49999987	    -12.70791397	      4.15368812	     -3.95434762	     13.24018839	    -11.86305626	      6.13689500	     29.65727606	     89.08737780	     22.66799518	    -15.95915455	     -2.30174234	     21.86044707	     78.10966440
